<svg width="204" height="52" viewBox="0 0 204 52" fill="none" xmlns="http://www.w3.org/2000/svg">
<rect width="204" height="52" rx="8" fill="#0E0F10"/>
<path d="M16 17.1242L24.6063 15.7406V25.4422H16V17.1242ZM16 34.8758L24.6063 36.2594V26.6781H16V34.8758ZM25.5531 36.407L37 38.25V26.6781H25.5531V36.407ZM25.5531 15.593V25.4422H37V13.75L25.5531 15.593Z" fill="white"/>
<path d="M53.8496 19.7031V32.5H51.6611V19.7031H53.8496ZM57.8662 19.7031V21.4609H47.6797V19.7031H57.8662ZM63.5264 30.5928V26.0576C63.5264 25.7178 63.4648 25.4248 63.3418 25.1787C63.2188 24.9326 63.0312 24.7422 62.7793 24.6074C62.5332 24.4727 62.2227 24.4053 61.8477 24.4053C61.502 24.4053 61.2031 24.4639 60.9512 24.5811C60.6992 24.6982 60.5029 24.8564 60.3623 25.0557C60.2217 25.2549 60.1514 25.4805 60.1514 25.7324H58.042C58.042 25.3574 58.1328 24.9941 58.3145 24.6426C58.4961 24.291 58.7598 23.9775 59.1055 23.7021C59.4512 23.4268 59.8643 23.21 60.3447 23.0518C60.8252 22.8936 61.3643 22.8145 61.9619 22.8145C62.6768 22.8145 63.3096 22.9346 63.8604 23.1748C64.417 23.415 64.8535 23.7783 65.1699 24.2646C65.4922 24.7451 65.6533 25.3486 65.6533 26.0752V30.3027C65.6533 30.7363 65.6826 31.126 65.7412 31.4717C65.8057 31.8115 65.8965 32.1074 66.0137 32.3594V32.5H63.8428C63.7432 32.2715 63.6641 31.9814 63.6055 31.6299C63.5527 31.2725 63.5264 30.9268 63.5264 30.5928ZM63.834 26.7168L63.8516 28.0264H62.3311C61.9385 28.0264 61.5928 28.0645 61.2939 28.1406C60.9951 28.2109 60.7461 28.3164 60.5469 28.457C60.3477 28.5977 60.1982 28.7676 60.0986 28.9668C59.999 29.166 59.9492 29.3916 59.9492 29.6436C59.9492 29.8955 60.0078 30.127 60.125 30.3379C60.2422 30.543 60.4121 30.7041 60.6348 30.8213C60.8633 30.9385 61.1387 30.9971 61.4609 30.9971C61.8945 30.9971 62.2725 30.9092 62.5947 30.7334C62.9229 30.5518 63.1807 30.332 63.3682 30.0742C63.5557 29.8105 63.6553 29.5615 63.667 29.3271L64.3525 30.2676C64.2822 30.5078 64.1621 30.7656 63.9922 31.041C63.8223 31.3164 63.5996 31.5801 63.3242 31.832C63.0547 32.0781 62.7295 32.2803 62.3486 32.4385C61.9736 32.5967 61.54 32.6758 61.0479 32.6758C60.4268 32.6758 59.873 32.5527 59.3867 32.3066C58.9004 32.0547 58.5195 31.7178 58.2441 31.2959C57.9688 30.8682 57.8311 30.3848 57.8311 29.8457C57.8311 29.3418 57.9248 28.8965 58.1123 28.5098C58.3057 28.1172 58.5869 27.7891 58.9561 27.5254C59.3311 27.2617 59.7881 27.0625 60.3271 26.9277C60.8662 26.7871 61.4814 26.7168 62.1729 26.7168H63.834ZM70.1357 22.9902V32.5H68.0088V22.9902H70.1357ZM67.8682 20.4941C67.8682 20.1719 67.9736 19.9053 68.1846 19.6943C68.4014 19.4775 68.7002 19.3691 69.0811 19.3691C69.4561 19.3691 69.752 19.4775 69.9688 19.6943C70.1855 19.9053 70.2939 20.1719 70.2939 20.4941C70.2939 20.8105 70.1855 21.0742 69.9688 21.2852C69.752 21.4961 69.4561 21.6016 69.0811 21.6016C68.7002 21.6016 68.4014 21.4961 68.1846 21.2852C67.9736 21.0742 67.8682 20.8105 67.8682 20.4941ZM74.5742 24.9238V32.5H72.4561V22.9902H74.4512L74.5742 24.9238ZM74.2314 27.3936L73.5107 27.3848C73.5107 26.7285 73.5928 26.1221 73.7568 25.5654C73.9209 25.0088 74.1611 24.5254 74.4775 24.1152C74.7939 23.6992 75.1865 23.3799 75.6553 23.1572C76.1299 22.9287 76.6777 22.8145 77.2988 22.8145C77.7324 22.8145 78.1279 22.8789 78.4854 23.0078C78.8486 23.1309 79.1621 23.3271 79.4258 23.5967C79.6953 23.8662 79.9004 24.2119 80.041 24.6338C80.1875 25.0557 80.2607 25.5654 80.2607 26.1631V32.5H78.1426V26.3477C78.1426 25.8848 78.0723 25.5215 77.9316 25.2578C77.7969 24.9941 77.6006 24.8066 77.3428 24.6953C77.0908 24.5781 76.7891 24.5195 76.4375 24.5195C76.0391 24.5195 75.6992 24.5957 75.418 24.748C75.1426 24.9004 74.917 25.1084 74.7412 25.3721C74.5654 25.6357 74.4365 25.9404 74.3545 26.2861C74.2725 26.6318 74.2314 27.001 74.2314 27.3936ZM80.1289 26.8311L79.1357 27.0508C79.1357 26.4766 79.2148 25.9346 79.373 25.4248C79.5371 24.9092 79.7744 24.458 80.085 24.0713C80.4014 23.6787 80.791 23.3711 81.2539 23.1484C81.7168 22.9258 82.2471 22.8145 82.8447 22.8145C83.3311 22.8145 83.7646 22.8818 84.1455 23.0166C84.5322 23.1455 84.8604 23.3506 85.1299 23.6318C85.3994 23.9131 85.6045 24.2793 85.7451 24.7305C85.8857 25.1758 85.9561 25.7148 85.9561 26.3477V32.5H83.8291V26.3389C83.8291 25.8584 83.7588 25.4863 83.6182 25.2227C83.4834 24.959 83.29 24.7773 83.0381 24.6777C82.7861 24.5723 82.4844 24.5195 82.1328 24.5195C81.8047 24.5195 81.5146 24.5811 81.2627 24.7041C81.0166 24.8213 80.8086 24.9883 80.6387 25.2051C80.4688 25.416 80.3398 25.6592 80.252 25.9346C80.1699 26.21 80.1289 26.5088 80.1289 26.8311ZM90.4033 22.9902V32.5H88.2764V22.9902H90.4033ZM88.1357 20.4941C88.1357 20.1719 88.2412 19.9053 88.4521 19.6943C88.6689 19.4775 88.9678 19.3691 89.3486 19.3691C89.7236 19.3691 90.0195 19.4775 90.2363 19.6943C90.4531 19.9053 90.5615 20.1719 90.5615 20.4941C90.5615 20.8105 90.4531 21.0742 90.2363 21.2852C90.0195 21.4961 89.7236 21.6016 89.3486 21.6016C88.9678 21.6016 88.6689 21.4961 88.4521 21.2852C88.2412 21.0742 88.1357 20.8105 88.1357 20.4941ZM100.071 32.5H97.9531V22.0762C97.9531 21.3672 98.085 20.7725 98.3486 20.292C98.6182 19.8057 99.002 19.4395 99.5 19.1934C99.998 18.9414 100.587 18.8154 101.267 18.8154C101.478 18.8154 101.686 18.8301 101.891 18.8594C102.096 18.8828 102.295 18.9209 102.488 18.9736L102.436 20.6084C102.318 20.5791 102.189 20.5586 102.049 20.5469C101.914 20.5352 101.768 20.5293 101.609 20.5293C101.287 20.5293 101.009 20.5908 100.774 20.7139C100.546 20.8311 100.37 21.0039 100.247 21.2324C100.13 21.4609 100.071 21.7422 100.071 22.0762V32.5ZM102.031 22.9902V24.5371H96.4941V22.9902H102.031ZM103.165 27.8506V27.6484C103.165 26.9629 103.265 26.3271 103.464 25.7412C103.663 25.1494 103.95 24.6367 104.325 24.2031C104.706 23.7637 105.169 23.4238 105.714 23.1836C106.265 22.9375 106.886 22.8145 107.577 22.8145C108.274 22.8145 108.896 22.9375 109.44 23.1836C109.991 23.4238 110.457 23.7637 110.838 24.2031C111.219 24.6367 111.509 25.1494 111.708 25.7412C111.907 26.3271 112.007 26.9629 112.007 27.6484V27.8506C112.007 28.5361 111.907 29.1719 111.708 29.7578C111.509 30.3438 111.219 30.8564 110.838 31.2959C110.457 31.7295 109.994 32.0693 109.449 32.3154C108.904 32.5557 108.286 32.6758 107.595 32.6758C106.897 32.6758 106.273 32.5557 105.723 32.3154C105.178 32.0693 104.715 31.7295 104.334 31.2959C103.953 30.8564 103.663 30.3438 103.464 29.7578C103.265 29.1719 103.165 28.5361 103.165 27.8506ZM105.283 27.6484V27.8506C105.283 28.2783 105.327 28.6826 105.415 29.0635C105.503 29.4443 105.641 29.7783 105.828 30.0654C106.016 30.3525 106.256 30.5781 106.549 30.7422C106.842 30.9062 107.19 30.9883 107.595 30.9883C107.987 30.9883 108.327 30.9062 108.614 30.7422C108.907 30.5781 109.147 30.3525 109.335 30.0654C109.522 29.7783 109.66 29.4443 109.748 29.0635C109.842 28.6826 109.889 28.2783 109.889 27.8506V27.6484C109.889 27.2266 109.842 26.8281 109.748 26.4531C109.66 26.0723 109.52 25.7354 109.326 25.4424C109.139 25.1494 108.898 24.9209 108.605 24.7568C108.318 24.5869 107.976 24.502 107.577 24.502C107.179 24.502 106.833 24.5869 106.54 24.7568C106.253 24.9209 106.016 25.1494 105.828 25.4424C105.641 25.7354 105.503 26.0723 105.415 26.4531C105.327 26.8281 105.283 27.2266 105.283 27.6484ZM115.909 24.8008V32.5H113.791V22.9902H115.812L115.909 24.8008ZM118.818 22.9287L118.801 24.8975C118.672 24.874 118.531 24.8564 118.379 24.8447C118.232 24.833 118.086 24.8271 117.939 24.8271C117.576 24.8271 117.257 24.8799 116.981 24.9854C116.706 25.085 116.475 25.2314 116.287 25.4248C116.105 25.6123 115.965 25.8408 115.865 26.1104C115.766 26.3799 115.707 26.6816 115.689 27.0156L115.206 27.0508C115.206 26.4531 115.265 25.8994 115.382 25.3896C115.499 24.8799 115.675 24.4316 115.909 24.0449C116.149 23.6582 116.448 23.3564 116.806 23.1396C117.169 22.9229 117.588 22.8145 118.062 22.8145C118.191 22.8145 118.329 22.8262 118.476 22.8496C118.628 22.873 118.742 22.8994 118.818 22.9287ZM128.047 29.626L130.596 19.7031H131.932L131.782 22.2607L129.058 32.5H127.669L128.047 29.626ZM126.14 19.7031L128.205 29.5469L128.39 32.5H126.913L123.951 19.7031H126.14ZM134.823 29.5205L136.862 19.7031H139.06L136.098 32.5H134.621L134.823 29.5205ZM132.45 19.7031L134.973 29.6523L135.342 32.5H133.953L131.272 22.2607L131.132 19.7031H132.45ZM142.751 22.9902V32.5H140.624V22.9902H142.751ZM140.483 20.4941C140.483 20.1719 140.589 19.9053 140.8 19.6943C141.017 19.4775 141.315 19.3691 141.696 19.3691C142.071 19.3691 142.367 19.4775 142.584 19.6943C142.801 19.9053 142.909 20.1719 142.909 20.4941C142.909 20.8105 142.801 21.0742 142.584 21.2852C142.367 21.4961 142.071 21.6016 141.696 21.6016C141.315 21.6016 141.017 21.4961 140.8 21.2852C140.589 21.0742 140.483 20.8105 140.483 20.4941ZM147.172 25.0205V32.5H145.054V22.9902H147.049L147.172 25.0205ZM146.794 27.3936L146.108 27.3848C146.114 26.7109 146.208 26.0928 146.39 25.5303C146.577 24.9678 146.835 24.4844 147.163 24.0801C147.497 23.6758 147.896 23.3652 148.358 23.1484C148.821 22.9258 149.337 22.8145 149.905 22.8145C150.362 22.8145 150.775 22.8789 151.145 23.0078C151.52 23.1309 151.839 23.333 152.103 23.6143C152.372 23.8955 152.577 24.2617 152.718 24.7129C152.858 25.1582 152.929 25.7061 152.929 26.3564V32.5H150.802V26.3477C150.802 25.8906 150.734 25.5303 150.6 25.2666C150.471 24.9971 150.28 24.8066 150.028 24.6953C149.782 24.5781 149.475 24.5195 149.105 24.5195C148.742 24.5195 148.417 24.5957 148.13 24.748C147.843 24.9004 147.6 25.1084 147.4 25.3721C147.207 25.6357 147.058 25.9404 146.952 26.2861C146.847 26.6318 146.794 27.001 146.794 27.3936ZM160.892 30.5312V19H163.019V32.5H161.094L160.892 30.5312ZM154.704 27.8506V27.666C154.704 26.9453 154.789 26.2891 154.959 25.6973C155.129 25.0996 155.375 24.5869 155.697 24.1592C156.02 23.7256 156.412 23.3945 156.875 23.166C157.338 22.9316 157.859 22.8145 158.439 22.8145C159.014 22.8145 159.518 22.9258 159.951 23.1484C160.385 23.3711 160.754 23.6904 161.059 24.1064C161.363 24.5166 161.606 25.0088 161.788 25.583C161.97 26.1514 162.099 26.7842 162.175 27.4814V28.0703C162.099 28.75 161.97 29.3711 161.788 29.9336C161.606 30.4961 161.363 30.9824 161.059 31.3926C160.754 31.8027 160.382 32.1191 159.942 32.3418C159.509 32.5645 159.002 32.6758 158.422 32.6758C157.848 32.6758 157.329 32.5557 156.866 32.3154C156.409 32.0752 156.02 31.7383 155.697 31.3047C155.375 30.8711 155.129 30.3613 154.959 29.7754C154.789 29.1836 154.704 28.542 154.704 27.8506ZM156.822 27.666V27.8506C156.822 28.2842 156.86 28.6885 156.937 29.0635C157.019 29.4385 157.145 29.7695 157.314 30.0566C157.484 30.3379 157.704 30.5605 157.974 30.7246C158.249 30.8828 158.577 30.9619 158.958 30.9619C159.438 30.9619 159.834 30.8564 160.145 30.6455C160.455 30.4346 160.698 30.1504 160.874 29.793C161.056 29.4297 161.179 29.0254 161.243 28.5801V26.9893C161.208 26.6436 161.135 26.3213 161.023 26.0225C160.918 25.7236 160.774 25.4629 160.593 25.2402C160.411 25.0117 160.186 24.8359 159.916 24.7129C159.652 24.584 159.339 24.5195 158.976 24.5195C158.589 24.5195 158.261 24.6016 157.991 24.7656C157.722 24.9297 157.499 25.1553 157.323 25.4424C157.153 25.7295 157.027 26.0635 156.945 26.4443C156.863 26.8252 156.822 27.2324 156.822 27.666ZM164.829 27.8506V27.6484C164.829 26.9629 164.929 26.3271 165.128 25.7412C165.327 25.1494 165.614 24.6367 165.989 24.2031C166.37 23.7637 166.833 23.4238 167.378 23.1836C167.929 22.9375 168.55 22.8145 169.241 22.8145C169.938 22.8145 170.56 22.9375 171.104 23.1836C171.655 23.4238 172.121 23.7637 172.502 24.2031C172.883 24.6367 173.173 25.1494 173.372 25.7412C173.571 26.3271 173.671 26.9629 173.671 27.6484V27.8506C173.671 28.5361 173.571 29.1719 173.372 29.7578C173.173 30.3438 172.883 30.8564 172.502 31.2959C172.121 31.7295 171.658 32.0693 171.113 32.3154C170.568 32.5557 169.95 32.6758 169.259 32.6758C168.562 32.6758 167.938 32.5557 167.387 32.3154C166.842 32.0693 166.379 31.7295 165.998 31.2959C165.617 30.8564 165.327 30.3438 165.128 29.7578C164.929 29.1719 164.829 28.5361 164.829 27.8506ZM166.947 27.6484V27.8506C166.947 28.2783 166.991 28.6826 167.079 29.0635C167.167 29.4443 167.305 29.7783 167.492 30.0654C167.68 30.3525 167.92 30.5781 168.213 30.7422C168.506 30.9062 168.854 30.9883 169.259 30.9883C169.651 30.9883 169.991 30.9062 170.278 30.7422C170.571 30.5781 170.812 30.3525 170.999 30.0654C171.187 29.7783 171.324 29.4443 171.412 29.0635C171.506 28.6826 171.553 28.2783 171.553 27.8506V27.6484C171.553 27.2266 171.506 26.8281 171.412 26.4531C171.324 26.0723 171.184 25.7354 170.99 25.4424C170.803 25.1494 170.562 24.9209 170.27 24.7568C169.982 24.5869 169.64 24.502 169.241 24.502C168.843 24.502 168.497 24.5869 168.204 24.7568C167.917 24.9209 167.68 25.1494 167.492 25.4424C167.305 25.7354 167.167 26.0723 167.079 26.4531C166.991 26.8281 166.947 27.2266 166.947 27.6484ZM178.03 30.3906L180.228 22.9902H181.581L181.212 25.2051L178.997 32.5H177.784L178.03 30.3906ZM176.738 22.9902L178.452 30.4258L178.593 32.5H177.239L174.664 22.9902H176.738ZM183.638 30.3379L185.299 22.9902H187.364L184.798 32.5H183.444L183.638 30.3379ZM181.81 22.9902L183.98 30.3027L184.253 32.5H183.04L180.799 25.1963L180.43 22.9902H181.81Z" fill="white"/>
</svg>
