<svg width="48" height="48" viewBox="0 0 48 48" fill="none" xmlns="http://www.w3.org/2000/svg">
<rect width="48" height="48" rx="8" fill="#009698" fill-opacity="0.1"/>
<path d="M24 29.8333C22.3861 29.8333 21.0102 29.2644 19.8723 28.1265C18.7344 26.9886 18.1659 25.6131 18.1667 24C18.1667 22.3861 18.7356 21.0102 19.8735 19.8723C21.0114 18.7344 22.3869 18.1659 24 18.1667C25.6139 18.1667 26.9898 18.7356 28.1277 19.8735C29.2656 21.0114 29.8341 22.3869 29.8333 24C29.8333 25.6139 29.2644 26.9898 28.1265 28.1277C26.9886 29.2656 25.6131 29.8341 24 29.8333ZM14.6667 20.5C14.3361 20.5 14.0588 20.388 13.8348 20.164C13.6108 19.94 13.4992 19.6631 13.5 19.3333V15.8333C13.5 15.1917 13.7287 14.6422 14.186 14.1848C14.6433 13.7275 15.1924 13.4992 15.8333 13.5H19.3333C19.6639 13.5 19.9412 13.612 20.1652 13.836C20.3892 14.06 20.5008 14.3369 20.5 14.6667C20.5 14.9972 20.388 15.2745 20.164 15.4985C19.94 15.7225 19.6631 15.8341 19.3333 15.8333H15.8333V19.3333C15.8333 19.6639 15.7213 19.9412 15.4973 20.1652C15.2733 20.3892 14.9964 20.5008 14.6667 20.5ZM15.8333 34.5C15.1917 34.5 14.6422 34.2713 14.1848 33.814C13.7275 33.3567 13.4992 32.8076 13.5 32.1667V28.6667C13.5 28.3361 13.612 28.0588 13.836 27.8348C14.06 27.6108 14.3369 27.4992 14.6667 27.5C14.9972 27.5 15.2745 27.612 15.4985 27.836C15.7225 28.06 15.8341 28.3369 15.8333 28.6667V32.1667H19.3333C19.6639 32.1667 19.9412 32.2787 20.1652 32.5027C20.3892 32.7267 20.5008 33.0036 20.5 33.3333C20.5 33.6639 20.388 33.9412 20.164 34.1652C19.94 34.3892 19.6631 34.5008 19.3333 34.5H15.8333ZM28.6667 34.5C28.3361 34.5 28.0588 34.388 27.8348 34.164C27.6108 33.94 27.4992 33.6631 27.5 33.3333C27.5 33.0028 27.612 32.7255 27.836 32.5015C28.06 32.2775 28.3369 32.1659 28.6667 32.1667H32.1667V28.6667C32.1667 28.3361 32.2787 28.0588 32.5027 27.8348C32.7267 27.6108 33.0036 27.4992 33.3333 27.5C33.6639 27.5 33.9412 27.612 34.1652 27.836C34.3892 28.06 34.5008 28.3369 34.5 28.6667V32.1667C34.5 32.8083 34.2713 33.3578 33.814 33.8152C33.3567 34.2725 32.8076 34.5008 32.1667 34.5H28.6667ZM33.3333 20.5C33.0028 20.5 32.7255 20.388 32.5015 20.164C32.2775 19.94 32.1659 19.6631 32.1667 19.3333V15.8333H28.6667C28.3361 15.8333 28.0588 15.7213 27.8348 15.4973C27.6108 15.2733 27.4992 14.9964 27.5 14.6667C27.5 14.3361 27.612 14.0588 27.836 13.8348C28.06 13.6108 28.3369 13.4992 28.6667 13.5H32.1667C32.8083 13.5 33.3578 13.7287 33.8152 14.186C34.2725 14.6433 34.5008 15.1924 34.5 15.8333V19.3333C34.5 19.6639 34.388 19.9412 34.164 20.1652C33.94 20.3892 33.6631 20.5008 33.3333 20.5Z" fill="#009698"/>
</svg>
