<svg width="48" height="48" viewBox="0 0 48 48" fill="none" xmlns="http://www.w3.org/2000/svg">
<rect width="48" height="48" rx="8" fill="#E9EAED"/>
<path d="M22 28.7501C21.7333 28.7501 21.479 28.7001 21.237 28.6001C20.995 28.5001 20.7743 28.3584 20.575 28.1751L15.825 23.4251C15.6417 23.2251 15.5 23.0041 15.4 22.7621C15.3 22.5201 15.25 22.2661 15.25 22.0001C15.25 21.7334 15.3 21.4751 15.4 21.2251C15.5 20.9751 15.6417 20.7584 15.825 20.5751L20.575 15.8001L18.875 14.1001C18.6917 13.9167 18.6 13.6877 18.6 13.4131C18.6 13.1384 18.7 12.9007 18.9 12.7001C19.1 12.5167 19.3333 12.4211 19.6 12.4131C19.8667 12.4051 20.1 12.5007 20.3 12.7001L28.175 20.5751C28.375 20.7584 28.521 20.9751 28.613 21.2251C28.705 21.4751 28.7507 21.7334 28.75 22.0001C28.75 22.2667 28.704 22.5211 28.612 22.7631C28.52 23.0051 28.3743 23.2257 28.175 23.4251L23.425 28.1751C23.2417 28.3584 23.025 28.5001 22.775 28.6001C22.525 28.7001 22.2667 28.7501 22 28.7501ZM22 17.2251L17.225 22.0001H26.775L22 17.2251ZM31 29.0001C30.45 29.0001 29.979 28.8041 29.587 28.4121C29.195 28.0201 28.9993 27.5494 29 27.0001C29 26.6501 29.1043 26.2751 29.313 25.8751C29.5217 25.4751 29.7507 25.1001 30 24.7501C30.15 24.5501 30.3083 24.3417 30.475 24.1251C30.6417 23.9084 30.8167 23.7001 31 23.5001C31.1833 23.7001 31.3583 23.9084 31.525 24.1251C31.6917 24.3417 31.85 24.5501 32 24.7501C32.25 25.1001 32.4793 25.4751 32.688 25.8751C32.8967 26.2751 33.0007 26.6501 33 27.0001C33 27.5501 32.804 28.0211 32.412 28.4131C32.02 28.8051 31.5493 29.0007 31 29.0001ZM16 36.0001C15.45 36.0001 14.979 35.8041 14.587 35.4121C14.195 35.0201 13.9993 34.5494 14 34.0001C14 33.4501 14.196 32.9791 14.588 32.5871C14.98 32.1951 15.4507 31.9994 16 32.0001H32C32.55 32.0001 33.021 32.1961 33.413 32.5881C33.805 32.9801 34.0007 33.4507 34 34.0001C34 34.5501 33.804 35.0211 33.412 35.4131C33.02 35.8051 32.5493 36.0007 32 36.0001H16Z" fill="#25282D"/>
</svg>
