<svg width="48" height="48" viewBox="0 0 48 48" fill="none" xmlns="http://www.w3.org/2000/svg">
<rect width="48" height="48" rx="8" fill="#E9EAED"/>
<path d="M17 35C16.7167 35 16.479 34.904 16.287 34.712C16.095 34.52 15.9993 34.2827 16 34C16 33.7167 16.096 33.479 16.288 33.287C16.48 33.095 16.7173 32.9993 17 33H31C31.2833 33 31.521 33.096 31.713 33.288C31.905 33.48 32.0007 33.7173 32 34C32 34.2833 31.904 34.521 31.712 34.713C31.52 34.905 31.2827 35.0007 31 35H17ZM17 15C16.7167 15 16.479 14.904 16.287 14.712C16.095 14.52 15.9993 14.2827 16 14C16 13.7167 16.096 13.479 16.288 13.287C16.48 13.095 16.7173 12.9993 17 13H31C31.2833 13 31.521 13.096 31.713 13.288C31.905 13.48 32.0007 13.7173 32 14C32 14.2833 31.904 14.521 31.712 14.713C31.52 14.905 31.2827 15.0007 31 15H17ZM24 25C24.8333 25 25.5417 24.7083 26.125 24.125C26.7083 23.5417 27 22.8333 27 22C27 21.1667 26.7083 20.4583 26.125 19.875C25.5417 19.2917 24.8333 19 24 19C23.1667 19 22.4583 19.2917 21.875 19.875C21.2917 20.4583 21 21.1667 21 22C21 22.8333 21.2917 23.5417 21.875 24.125C22.4583 24.7083 23.1667 25 24 25ZM16 32C15.45 32 14.979 31.804 14.587 31.412C14.195 31.02 13.9993 30.5493 14 30V18C14 17.45 14.196 16.979 14.588 16.587C14.98 16.195 15.4507 15.9993 16 16H32C32.55 16 33.021 16.196 33.413 16.588C33.805 16.98 34.0007 17.4507 34 18V30C34 30.55 33.804 31.021 33.412 31.413C33.02 31.805 32.5493 32.0007 32 32H16ZM17.75 30H30.25C29.5 29.0667 28.5917 28.3333 27.525 27.8C26.4583 27.2667 25.2833 27 24 27C22.7167 27 21.5417 27.2667 20.475 27.8C19.4083 28.3333 18.5 29.0667 17.75 30Z" fill="#25282D"/>
</svg>
