<svg width="48" height="48" viewBox="0 0 48 48" fill="none" xmlns="http://www.w3.org/2000/svg">
<rect width="48" height="48" rx="8" fill="#E9EAED"/>
<path d="M27 23H28.5V21.75H30V20.25H28.5V19H27V23ZM18 21.75H26V20.25H18V21.75ZM19.5 27H21V23H19.5V24.25H18V25.75H19.5V27ZM22 25.75H30V24.25H22V25.75ZM21 33C20.7167 33 20.479 32.904 20.287 32.712C20.095 32.52 19.9993 32.2827 20 32V31H16C15.45 31 14.979 30.804 14.587 30.412C14.195 30.02 13.9993 29.5493 14 29V17C14 16.45 14.196 15.979 14.588 15.587C14.98 15.195 15.4507 14.9993 16 15H32C32.55 15 33.021 15.196 33.413 15.588C33.805 15.98 34.0007 16.4507 34 17V29C34 29.55 33.804 30.021 33.412 30.413C33.02 30.805 32.5493 31.0007 32 31H28V32C28 32.2833 27.904 32.521 27.712 32.713C27.52 32.905 27.2827 33.0007 27 33H21Z" fill="#25282D"/>
</svg>
