<svg width="48" height="48" viewBox="0 0 48 48" fill="none" xmlns="http://www.w3.org/2000/svg">
<rect width="48" height="48" rx="8" fill="#009698" fill-opacity="0.1"/>
<path d="M15.6 23.65L12.6834 20.7333C12.45 20.5 12.3334 20.2277 12.3334 19.9166C12.3334 19.6055 12.45 19.3333 12.6834 19.1L15.6 16.1833C15.8334 15.95 16.1056 15.8333 16.4167 15.8333C16.7278 15.8333 17 15.95 17.2334 16.1833L20.15 19.1C20.3834 19.3333 20.5 19.6055 20.5 19.9166C20.5 20.2277 20.3834 20.5 20.15 20.7333L17.2334 23.65C17 23.8833 16.7278 24 16.4167 24C16.1056 24 15.8334 23.8833 15.6 23.65ZM21.6667 35.6666C21.3362 35.6666 21.0589 35.5546 20.8349 35.3306C20.6109 35.1066 20.4993 34.8297 20.5 34.5V29.8333C19.5278 29.7555 18.5653 29.6486 17.6125 29.5125C16.6598 29.3763 15.707 29.2013 14.7542 28.9875C14.4237 28.9097 14.1561 28.725 13.9515 28.4333C13.747 28.1416 13.6937 27.8305 13.7917 27.5C13.8889 27.1694 14.0884 26.9263 14.3902 26.7708C14.692 26.6152 15.0078 26.5763 15.3375 26.6541C16.757 26.9847 18.1912 27.2083 19.6402 27.325C21.0892 27.4416 22.5425 27.5 24 27.5C25.4584 27.5 26.912 27.4416 28.361 27.325C29.81 27.2083 31.2439 26.9847 32.6625 26.6541C32.9931 26.5763 33.3093 26.6152 33.611 26.7708C33.9128 26.9263 34.1119 27.1694 34.2084 27.5C34.3056 27.8305 34.2519 28.1416 34.0474 28.4333C33.8428 28.725 33.5757 28.9097 33.2459 28.9875C32.2931 29.2013 31.3403 29.3763 30.3875 29.5125C29.4348 29.6486 28.4723 29.7555 27.5 29.8333V34.5C27.5 34.8305 27.3884 35.1078 27.1652 35.3318C26.942 35.5558 26.6647 35.6674 26.3334 35.6666H21.6667ZM24 18.1666C23.0278 18.1666 22.2014 17.8263 21.5209 17.1458C20.8403 16.4652 20.5 15.6388 20.5 14.6666C20.5 13.6944 20.8403 12.868 21.5209 12.1875C22.2014 11.5069 23.0278 11.1666 24 11.1666C24.9723 11.1666 25.7987 11.5069 26.4792 12.1875C27.1598 12.868 27.5 13.6944 27.5 14.6666C27.5 15.6388 27.1598 16.4652 26.4792 17.1458C25.7987 17.8263 24.9723 18.1666 24 18.1666ZM24 26.3333C23.3584 26.3333 22.8089 26.1046 22.3515 25.6473C21.8942 25.19 21.6659 24.6408 21.6667 24C21.6667 23.3583 21.8954 22.8088 22.3527 22.3515C22.81 21.8941 23.3592 21.6658 24 21.6666C24.6417 21.6666 25.1912 21.8953 25.6485 22.3526C26.1059 22.81 26.3342 23.3591 26.3334 24C26.3334 24.6416 26.1047 25.1911 25.6474 25.6485C25.19 26.1058 24.6409 26.3341 24 26.3333ZM29.5709 23.4166L28.2292 21.0833C28.132 20.9083 28.0834 20.7138 28.0834 20.5C28.0834 20.2861 28.132 20.0916 28.2292 19.9166L29.5709 17.5833C29.6681 17.3888 29.8042 17.243 29.9792 17.1458C30.1542 17.0486 30.3487 17 30.5625 17H33.1875C33.4014 17 33.5959 17.0486 33.7709 17.1458C33.9459 17.243 34.082 17.3888 34.1792 17.5833L35.5209 19.9166C35.6181 20.0916 35.6667 20.2861 35.6667 20.5C35.6667 20.7138 35.6181 20.9083 35.5209 21.0833L34.1792 23.4166C34.082 23.6111 33.9459 23.7569 33.7709 23.8541C33.5959 23.9513 33.4014 24 33.1875 24H30.5625C30.3487 24 30.1542 23.9513 29.9792 23.8541C29.8042 23.7569 29.6681 23.6111 29.5709 23.4166Z" fill="#009698"/>
</svg>
