<svg width="48" height="48" viewBox="0 0 48 48" fill="none" xmlns="http://www.w3.org/2000/svg">
<rect width="48" height="48" rx="8" fill="#E9EAED"/>
<path d="M23 32C22.7167 32 22.479 31.904 22.287 31.712C22.095 31.52 21.9993 31.2827 22 31V25L16.2 17.6C15.95 17.2667 15.9123 16.9167 16.087 16.55C16.2617 16.1833 16.566 16 17 16H31C31.4333 16 31.7377 16.1833 31.913 16.55C32.0883 16.9167 32.0507 17.2667 31.8 17.6L26 25V31C26 31.2833 25.904 31.521 25.712 31.713C25.52 31.905 25.2827 32.0007 25 32H23Z" fill="#25282D"/>
</svg>
