<svg width="190" height="52" viewBox="0 0 190 52" fill="none" xmlns="http://www.w3.org/2000/svg">
<rect width="190" height="52" rx="8" fill="#0E0F10"/>
<rect x="16" y="12" width="28" height="28" rx="14" fill="white"/>
<path d="M29.875 20.8164C29.9141 20.8359 29.9454 20.8828 29.9922 20.8828C30.0352 20.8828 30.1016 20.8672 30.1055 20.8242C30.1133 20.7695 30.0313 20.7344 29.9805 20.7109C29.9141 20.6836 29.8282 20.6719 29.7657 20.707C29.75 20.7149 29.7344 20.7344 29.7422 20.75C29.754 20.8008 29.8321 20.793 29.875 20.8164ZM29.0196 20.8828C29.0665 20.8828 29.0977 20.8359 29.1368 20.8164C29.1797 20.793 29.2579 20.8008 29.2735 20.7539C29.2813 20.7383 29.2657 20.7188 29.25 20.7109C29.1875 20.6758 29.1016 20.6875 29.0352 20.7149C28.9844 20.7383 28.9024 20.7734 28.9102 20.8281C28.9141 20.8672 28.9805 20.8867 29.0196 20.8828ZM37.6563 31.7734C37.5157 31.6172 37.4493 31.3203 37.375 31.0039C37.3047 30.6875 37.2227 30.3477 36.9649 30.1289C36.9141 30.0859 36.8633 30.0469 36.8086 30.0156C36.7579 29.9844 36.7032 29.957 36.6485 29.9375C37.0079 28.8711 36.8672 27.8086 36.504 26.8477C36.0586 25.6719 35.2813 24.6445 34.6875 23.9414C34.0196 23.1016 33.3711 22.3047 33.3829 21.1289C33.4024 19.3359 33.5821 16.0039 30.4219 16C26.4219 15.9922 27.4219 20.0391 27.379 21.2813C27.3125 22.1953 27.129 22.9141 26.5 23.8086C25.7618 24.6875 24.7227 26.1055 24.2305 27.5859C23.9961 28.2852 23.8868 28.9961 23.9883 29.668C23.7344 29.8945 23.543 30.2422 23.3399 30.457C23.1758 30.625 22.9375 30.6875 22.6758 30.7813C22.4141 30.875 22.129 31.0156 21.9532 31.3477C21.8711 31.5 21.8438 31.6641 21.8438 31.832C21.8438 31.9844 21.8672 32.1406 21.8907 32.293C21.9375 32.6094 21.9883 32.9063 21.9219 33.1055C21.7188 33.668 21.6915 34.0586 21.836 34.3438C21.9844 34.6289 22.2813 34.7539 22.6211 34.8242C23.2969 34.9649 24.2149 34.9297 24.9375 35.3125C25.711 35.7188 26.4961 35.8633 27.1211 35.7188C27.5743 35.6172 27.9454 35.3438 28.1329 34.9297C28.6211 34.9258 29.1602 34.7188 30.0196 34.6719C30.6016 34.625 31.3321 34.8789 32.1719 34.832C32.1954 34.9219 32.2266 35.0117 32.2696 35.0938V35.0977C32.5938 35.75 33.1993 36.0469 33.8438 35.9961C34.4922 35.9453 35.1758 35.5664 35.7305 34.9063C36.2618 34.2656 37.1368 34 37.7188 33.6484C38.0079 33.4727 38.2422 33.2539 38.2618 32.9336C38.2774 32.6133 38.0899 32.2578 37.6563 31.7734ZM29.9883 19.4102C30.3711 18.543 31.3243 18.5586 31.7071 19.3945C31.961 19.9492 31.8477 20.6016 31.5391 20.9727C31.4766 20.9414 31.3086 20.8711 31.0469 20.7813C31.0899 20.7344 31.168 20.6758 31.1993 20.6016C31.3868 20.1406 31.1915 19.5469 30.8438 19.5352C30.5586 19.5156 30.3008 19.957 30.3829 20.4336C30.2227 20.3555 30.0157 20.2969 29.875 20.2617C29.836 19.9922 29.8633 19.6914 29.9883 19.4102ZM28.3985 18.9609C28.793 18.9609 29.211 19.5156 29.1446 20.2695C29.0079 20.3086 28.8672 20.3672 28.7461 20.4492C28.793 20.1016 28.6172 19.6641 28.3711 19.6836C28.043 19.7109 27.9883 20.5117 28.3008 20.7813C28.3399 20.8125 28.375 20.7734 28.0704 20.9961C27.461 20.4258 27.6602 18.9609 28.3985 18.9609ZM27.8672 21.332C28.1094 21.1524 28.3985 20.9414 28.418 20.9219C28.6016 20.75 28.9454 20.3672 29.5079 20.3672C29.7852 20.3672 30.1172 20.457 30.5196 20.7149C30.7657 20.875 30.961 20.8867 31.4024 21.0781C31.7305 21.2149 31.9375 21.457 31.8125 21.7891C31.711 22.0664 31.3829 22.3516 30.9258 22.4961C30.4922 22.6367 30.1524 23.1211 29.4336 23.0781C29.2813 23.0703 29.1602 23.0391 29.0586 22.9961C28.7461 22.8594 28.5821 22.5899 28.2774 22.4102C27.9415 22.2227 27.7618 22.0039 27.7032 21.8125C27.6485 21.6211 27.7032 21.4609 27.8672 21.332ZM27.9961 34.3789C27.8907 35.75 26.2813 35.7227 25.0547 35.082C23.8868 34.4649 22.375 34.8281 22.0665 34.2266C21.9727 34.043 21.9727 33.7305 22.168 33.1953V33.1875C22.2618 32.8906 22.1915 32.5625 22.1446 32.2539C22.0977 31.9492 22.0743 31.668 22.1797 31.4727C22.3165 31.2109 22.5118 31.1172 22.7579 31.0313C23.1602 30.8867 23.2188 30.8984 23.5235 30.6445C23.7383 30.4219 23.8946 30.1406 24.0821 29.9414C24.2813 29.7266 24.4727 29.625 24.7735 29.6719C25.0899 29.7188 25.3633 29.9375 25.629 30.2969L26.3946 31.6875C26.7657 32.4649 28.0782 33.5781 27.9961 34.3789ZM27.9415 33.3672C27.7813 33.1094 27.5665 32.8359 27.379 32.6016C27.6563 32.6016 27.9336 32.5156 28.0313 32.2539C28.1211 32.0117 28.0313 31.6719 27.7422 31.2813C27.2149 30.5703 26.2461 30.0117 26.2461 30.0117C25.7188 29.6836 25.4219 29.2813 25.2852 28.8438C25.1485 28.4063 25.168 27.9336 25.2735 27.4688C25.4766 26.5742 26 25.7031 26.336 25.1563C26.4258 25.0899 26.3672 25.2813 25.9961 25.9688C25.6641 26.5977 25.043 28.0508 25.8946 29.1875C25.918 28.3789 26.1094 27.5547 26.4336 26.7852C26.9024 25.7149 27.8907 23.8594 27.9688 22.3828C28.0118 22.4141 28.1485 22.5078 28.211 22.543C28.3907 22.6484 28.5274 22.8047 28.7032 22.9453C29.1875 23.3359 29.8165 23.3047 30.3594 22.9922C30.6016 22.8555 30.7969 22.6992 30.9805 22.6406C31.3672 22.5195 31.6758 22.3047 31.8516 22.0547C32.1524 23.2422 32.8555 24.957 33.3047 25.793C33.543 26.2383 34.0196 27.1797 34.2266 28.3164C34.3555 28.3125 34.5 28.332 34.6524 28.3711C35.1915 26.9766 34.1954 25.4727 33.7422 25.0547C33.5586 24.875 33.5508 24.7969 33.6407 24.8008C34.1329 25.2383 34.7813 26.1172 35.0157 27.1055C35.125 27.5586 35.1446 28.0313 35.0313 28.5C35.6719 28.7656 36.4336 29.1992 36.2305 29.8594C36.1446 29.8555 36.1055 29.8594 36.0665 29.8594C36.1915 29.4649 35.9141 29.1719 35.1758 28.8399C34.4102 28.5039 33.7696 28.5039 33.6797 29.3281C33.2071 29.4922 32.9649 29.9024 32.8438 30.3945C32.7344 30.832 32.7032 31.3594 32.6719 31.9531C32.6524 32.2539 32.5313 32.6563 32.4063 33.0859C31.1524 33.9805 29.4102 34.3711 27.9415 33.3672ZM37.9961 32.918C37.961 33.5742 36.3868 33.6953 35.5274 34.7344C35.0118 35.3477 34.379 35.6875 33.8243 35.7305C33.2696 35.7734 32.7891 35.543 32.5079 34.9766C32.3243 34.543 32.4141 34.0742 32.5508 33.5586C32.6954 33.0039 32.9102 32.4336 32.9375 31.9727C32.9688 31.3789 33.004 30.8594 33.1016 30.4609C33.2032 30.0586 33.3594 29.7891 33.6368 29.6367C33.6485 29.6289 33.6641 29.625 33.6758 29.6172C33.7071 30.1328 33.961 30.6563 34.4102 30.7695C34.9024 30.8984 35.6094 30.4766 35.9102 30.1328C36.2618 30.1211 36.5235 30.0977 36.793 30.332C37.1797 30.6641 37.0704 31.5156 37.461 31.957C37.875 32.4102 38.0079 32.7188 37.9961 32.918ZM28.0196 21.8086C28.0977 21.8828 28.2032 21.9844 28.3321 22.0859C28.5899 22.2891 28.9493 22.5 29.3985 22.5C29.8516 22.5 30.2774 22.2695 30.6407 22.0781C30.8321 21.9766 31.0665 21.8047 31.2188 21.6719C31.3711 21.5391 31.4493 21.4258 31.3399 21.4141C31.2305 21.4024 31.2383 21.5156 31.1055 21.6133C30.9336 21.7383 30.7266 21.9024 30.5625 21.9961C30.2735 22.1602 29.8008 22.3945 29.3946 22.3945C28.9883 22.3945 28.6641 22.207 28.4219 22.0156C28.3008 21.918 28.1993 21.8203 28.1211 21.7461C28.0625 21.6914 28.0469 21.5664 27.9532 21.5547C27.8985 21.5508 27.8829 21.6992 28.0196 21.8086Z" fill="#0E0F10"/>
<path d="M60.7383 19.7031V32.5H58.5498V19.7031H60.7383ZM64.7549 19.7031V21.4609H54.5684V19.7031H64.7549ZM70.415 30.5928V26.0576C70.415 25.7178 70.3535 25.4248 70.2305 25.1787C70.1074 24.9326 69.9199 24.7422 69.668 24.6074C69.4219 24.4727 69.1113 24.4053 68.7363 24.4053C68.3906 24.4053 68.0918 24.4639 67.8398 24.5811C67.5879 24.6982 67.3916 24.8564 67.251 25.0557C67.1104 25.2549 67.04 25.4805 67.04 25.7324H64.9307C64.9307 25.3574 65.0215 24.9941 65.2031 24.6426C65.3848 24.291 65.6484 23.9775 65.9941 23.7021C66.3398 23.4268 66.7529 23.21 67.2334 23.0518C67.7139 22.8936 68.2529 22.8145 68.8506 22.8145C69.5654 22.8145 70.1982 22.9346 70.749 23.1748C71.3057 23.415 71.7422 23.7783 72.0586 24.2646C72.3809 24.7451 72.542 25.3486 72.542 26.0752V30.3027C72.542 30.7363 72.5713 31.126 72.6299 31.4717C72.6943 31.8115 72.7852 32.1074 72.9023 32.3594V32.5H70.7314C70.6318 32.2715 70.5527 31.9814 70.4941 31.6299C70.4414 31.2725 70.415 30.9268 70.415 30.5928ZM70.7227 26.7168L70.7402 28.0264H69.2197C68.8271 28.0264 68.4814 28.0645 68.1826 28.1406C67.8838 28.2109 67.6348 28.3164 67.4355 28.457C67.2363 28.5977 67.0869 28.7676 66.9873 28.9668C66.8877 29.166 66.8379 29.3916 66.8379 29.6436C66.8379 29.8955 66.8965 30.127 67.0137 30.3379C67.1309 30.543 67.3008 30.7041 67.5234 30.8213C67.752 30.9385 68.0273 30.9971 68.3496 30.9971C68.7832 30.9971 69.1611 30.9092 69.4834 30.7334C69.8115 30.5518 70.0693 30.332 70.2568 30.0742C70.4443 29.8105 70.5439 29.5615 70.5557 29.3271L71.2412 30.2676C71.1709 30.5078 71.0508 30.7656 70.8809 31.041C70.7109 31.3164 70.4883 31.5801 70.2129 31.832C69.9434 32.0781 69.6182 32.2803 69.2373 32.4385C68.8623 32.5967 68.4287 32.6758 67.9365 32.6758C67.3154 32.6758 66.7617 32.5527 66.2754 32.3066C65.7891 32.0547 65.4082 31.7178 65.1328 31.2959C64.8574 30.8682 64.7197 30.3848 64.7197 29.8457C64.7197 29.3418 64.8135 28.8965 65.001 28.5098C65.1943 28.1172 65.4756 27.7891 65.8447 27.5254C66.2197 27.2617 66.6768 27.0625 67.2158 26.9277C67.7549 26.7871 68.3701 26.7168 69.0615 26.7168H70.7227ZM77.0244 22.9902V32.5H74.8975V22.9902H77.0244ZM74.7568 20.4941C74.7568 20.1719 74.8623 19.9053 75.0732 19.6943C75.29 19.4775 75.5889 19.3691 75.9697 19.3691C76.3447 19.3691 76.6406 19.4775 76.8574 19.6943C77.0742 19.9053 77.1826 20.1719 77.1826 20.4941C77.1826 20.8105 77.0742 21.0742 76.8574 21.2852C76.6406 21.4961 76.3447 21.6016 75.9697 21.6016C75.5889 21.6016 75.29 21.4961 75.0732 21.2852C74.8623 21.0742 74.7568 20.8105 74.7568 20.4941ZM81.4629 24.9238V32.5H79.3447V22.9902H81.3398L81.4629 24.9238ZM81.1201 27.3936L80.3994 27.3848C80.3994 26.7285 80.4814 26.1221 80.6455 25.5654C80.8096 25.0088 81.0498 24.5254 81.3662 24.1152C81.6826 23.6992 82.0752 23.3799 82.5439 23.1572C83.0186 22.9287 83.5664 22.8145 84.1875 22.8145C84.6211 22.8145 85.0166 22.8789 85.374 23.0078C85.7373 23.1309 86.0508 23.3271 86.3145 23.5967C86.584 23.8662 86.7891 24.2119 86.9297 24.6338C87.0762 25.0557 87.1494 25.5654 87.1494 26.1631V32.5H85.0312V26.3477C85.0312 25.8848 84.9609 25.5215 84.8203 25.2578C84.6855 24.9941 84.4893 24.8066 84.2314 24.6953C83.9795 24.5781 83.6777 24.5195 83.3262 24.5195C82.9277 24.5195 82.5879 24.5957 82.3066 24.748C82.0312 24.9004 81.8057 25.1084 81.6299 25.3721C81.4541 25.6357 81.3252 25.9404 81.2432 26.2861C81.1611 26.6318 81.1201 27.001 81.1201 27.3936ZM87.0176 26.8311L86.0244 27.0508C86.0244 26.4766 86.1035 25.9346 86.2617 25.4248C86.4258 24.9092 86.6631 24.458 86.9736 24.0713C87.29 23.6787 87.6797 23.3711 88.1426 23.1484C88.6055 22.9258 89.1357 22.8145 89.7334 22.8145C90.2197 22.8145 90.6533 22.8818 91.0342 23.0166C91.4209 23.1455 91.749 23.3506 92.0186 23.6318C92.2881 23.9131 92.4932 24.2793 92.6338 24.7305C92.7744 25.1758 92.8447 25.7148 92.8447 26.3477V32.5H90.7178V26.3389C90.7178 25.8584 90.6475 25.4863 90.5068 25.2227C90.3721 24.959 90.1787 24.7773 89.9268 24.6777C89.6748 24.5723 89.373 24.5195 89.0215 24.5195C88.6934 24.5195 88.4033 24.5811 88.1514 24.7041C87.9053 24.8213 87.6973 24.9883 87.5273 25.2051C87.3574 25.416 87.2285 25.6592 87.1406 25.9346C87.0586 26.21 87.0176 26.5088 87.0176 26.8311ZM97.292 22.9902V32.5H95.165V22.9902H97.292ZM95.0244 20.4941C95.0244 20.1719 95.1299 19.9053 95.3408 19.6943C95.5576 19.4775 95.8564 19.3691 96.2373 19.3691C96.6123 19.3691 96.9082 19.4775 97.125 19.6943C97.3418 19.9053 97.4502 20.1719 97.4502 20.4941C97.4502 20.8105 97.3418 21.0742 97.125 21.2852C96.9082 21.4961 96.6123 21.6016 96.2373 21.6016C95.8564 21.6016 95.5576 21.4961 95.3408 21.2852C95.1299 21.0742 95.0244 20.8105 95.0244 20.4941ZM106.96 32.5H104.842V22.0762C104.842 21.3672 104.974 20.7725 105.237 20.292C105.507 19.8057 105.891 19.4395 106.389 19.1934C106.887 18.9414 107.476 18.8154 108.155 18.8154C108.366 18.8154 108.574 18.8301 108.779 18.8594C108.984 18.8828 109.184 18.9209 109.377 18.9736L109.324 20.6084C109.207 20.5791 109.078 20.5586 108.938 20.5469C108.803 20.5352 108.656 20.5293 108.498 20.5293C108.176 20.5293 107.897 20.5908 107.663 20.7139C107.435 20.8311 107.259 21.0039 107.136 21.2324C107.019 21.4609 106.96 21.7422 106.96 22.0762V32.5ZM108.92 22.9902V24.5371H103.383V22.9902H108.92ZM110.054 27.8506V27.6484C110.054 26.9629 110.153 26.3271 110.353 25.7412C110.552 25.1494 110.839 24.6367 111.214 24.2031C111.595 23.7637 112.058 23.4238 112.603 23.1836C113.153 22.9375 113.774 22.8145 114.466 22.8145C115.163 22.8145 115.784 22.9375 116.329 23.1836C116.88 23.4238 117.346 23.7637 117.727 24.2031C118.107 24.6367 118.397 25.1494 118.597 25.7412C118.796 26.3271 118.896 26.9629 118.896 27.6484V27.8506C118.896 28.5361 118.796 29.1719 118.597 29.7578C118.397 30.3438 118.107 30.8564 117.727 31.2959C117.346 31.7295 116.883 32.0693 116.338 32.3154C115.793 32.5557 115.175 32.6758 114.483 32.6758C113.786 32.6758 113.162 32.5557 112.611 32.3154C112.066 32.0693 111.604 31.7295 111.223 31.2959C110.842 30.8564 110.552 30.3438 110.353 29.7578C110.153 29.1719 110.054 28.5361 110.054 27.8506ZM112.172 27.6484V27.8506C112.172 28.2783 112.216 28.6826 112.304 29.0635C112.392 29.4443 112.529 29.7783 112.717 30.0654C112.904 30.3525 113.145 30.5781 113.438 30.7422C113.73 30.9062 114.079 30.9883 114.483 30.9883C114.876 30.9883 115.216 30.9062 115.503 30.7422C115.796 30.5781 116.036 30.3525 116.224 30.0654C116.411 29.7783 116.549 29.4443 116.637 29.0635C116.73 28.6826 116.777 28.2783 116.777 27.8506V27.6484C116.777 27.2266 116.73 26.8281 116.637 26.4531C116.549 26.0723 116.408 25.7354 116.215 25.4424C116.027 25.1494 115.787 24.9209 115.494 24.7568C115.207 24.5869 114.864 24.502 114.466 24.502C114.067 24.502 113.722 24.5869 113.429 24.7568C113.142 24.9209 112.904 25.1494 112.717 25.4424C112.529 25.7354 112.392 26.0723 112.304 26.4531C112.216 26.8281 112.172 27.2266 112.172 27.6484ZM122.798 24.8008V32.5H120.68V22.9902H122.701L122.798 24.8008ZM125.707 22.9287L125.689 24.8975C125.561 24.874 125.42 24.8564 125.268 24.8447C125.121 24.833 124.975 24.8271 124.828 24.8271C124.465 24.8271 124.146 24.8799 123.87 24.9854C123.595 25.085 123.363 25.2314 123.176 25.4248C122.994 25.6123 122.854 25.8408 122.754 26.1104C122.654 26.3799 122.596 26.6816 122.578 27.0156L122.095 27.0508C122.095 26.4531 122.153 25.8994 122.271 25.3896C122.388 24.8799 122.563 24.4316 122.798 24.0449C123.038 23.6582 123.337 23.3564 123.694 23.1396C124.058 22.9229 124.477 22.8145 124.951 22.8145C125.08 22.8145 125.218 22.8262 125.364 22.8496C125.517 22.873 125.631 22.8994 125.707 22.9287ZM139.743 30.751V32.5H133.318V30.751H139.743ZM133.934 19.7031V32.5H131.728V19.7031H133.934ZM143.505 22.9902V32.5H141.378V22.9902H143.505ZM141.237 20.4941C141.237 20.1719 141.343 19.9053 141.554 19.6943C141.771 19.4775 142.069 19.3691 142.45 19.3691C142.825 19.3691 143.121 19.4775 143.338 19.6943C143.555 19.9053 143.663 20.1719 143.663 20.4941C143.663 20.8105 143.555 21.0742 143.338 21.2852C143.121 21.4961 142.825 21.6016 142.45 21.6016C142.069 21.6016 141.771 21.4961 141.554 21.2852C141.343 21.0742 141.237 20.8105 141.237 20.4941ZM147.926 25.0205V32.5H145.808V22.9902H147.803L147.926 25.0205ZM147.548 27.3936L146.862 27.3848C146.868 26.7109 146.962 26.0928 147.144 25.5303C147.331 24.9678 147.589 24.4844 147.917 24.0801C148.251 23.6758 148.649 23.3652 149.112 23.1484C149.575 22.9258 150.091 22.8145 150.659 22.8145C151.116 22.8145 151.529 22.8789 151.898 23.0078C152.273 23.1309 152.593 23.333 152.856 23.6143C153.126 23.8955 153.331 24.2617 153.472 24.7129C153.612 25.1582 153.683 25.7061 153.683 26.3564V32.5H151.556V26.3477C151.556 25.8906 151.488 25.5303 151.354 25.2666C151.225 24.9971 151.034 24.8066 150.782 24.6953C150.536 24.5781 150.229 24.5195 149.859 24.5195C149.496 24.5195 149.171 24.5957 148.884 24.748C148.597 24.9004 148.354 25.1084 148.154 25.3721C147.961 25.6357 147.812 25.9404 147.706 26.2861C147.601 26.6318 147.548 27.001 147.548 27.3936ZM161.566 30.2588V22.9902H163.693V32.5H161.689L161.566 30.2588ZM161.865 28.2812L162.577 28.2637C162.577 28.9023 162.507 29.4912 162.366 30.0303C162.226 30.5635 162.009 31.0293 161.716 31.4277C161.423 31.8203 161.048 32.1279 160.591 32.3506C160.134 32.5674 159.586 32.6758 158.947 32.6758C158.484 32.6758 158.06 32.6084 157.673 32.4736C157.286 32.3389 156.952 32.1309 156.671 31.8496C156.396 31.5684 156.182 31.2021 156.029 30.751C155.877 30.2998 155.801 29.7607 155.801 29.1338V22.9902H157.919V29.1514C157.919 29.4971 157.96 29.7871 158.042 30.0215C158.124 30.25 158.235 30.4346 158.376 30.5752C158.517 30.7158 158.681 30.8154 158.868 30.874C159.056 30.9326 159.255 30.9619 159.466 30.9619C160.069 30.9619 160.544 30.8447 160.89 30.6104C161.241 30.3701 161.49 30.0479 161.637 29.6436C161.789 29.2393 161.865 28.7852 161.865 28.2812ZM167.481 22.9902L169.292 26.1455L171.138 22.9902H173.467L170.584 27.6572L173.581 32.5H171.252L169.318 29.2129L167.385 32.5H165.047L168.035 27.6572L165.161 22.9902H167.481Z" fill="white"/>
</svg>
