<svg width="52" height="72" viewBox="0 0 26 36" fill="none" xmlns="http://www.w3.org/2000/svg">
<path fill-rule="evenodd" clip-rule="evenodd" d="M14.3422 3.89306L23.2896 9.05881C23.2896 16.6795 23.2896 19.3205 23.2896 26.9412L12.9934 32.8855L6.74312 29.2768L4.04601 30.834L6.49665 32.2492L12.9934 36L19.49 32.2492L25.987 28.4981C25.987 19.8393 25.987 16.1606 25.987 7.50185L19.49 3.75072L14.3422 0.778625L12.9934 -7.62939e-06L11.6448 0.778625V3.89306C11.6448 10.9946 11.6448 13.1164 11.6448 20.2179L2.69711 25.3839V15.0519L8.94768 11.4432V8.32869L6.49665 9.74362L0 13.4946V20.9965V26.9412V28.4981L1.3486 29.2768L4.04601 27.7198L14.3422 21.7751V18.6607C14.3422 12.078 14.3422 10.4754 14.3422 3.89306Z" fill="#25A9E1"/>
</svg>
