<svg width="48" height="48" viewBox="0 0 48 48" fill="none" xmlns="http://www.w3.org/2000/svg">
<rect width="48" height="48" rx="8" fill="#e6f5f5"/>
<path d="M29.275 30.125L28.85 29.7C28.7 29.55 28.521 29.475 28.313 29.475C28.105 29.475 27.9257 29.55 27.775 29.7C27.625 29.85 27.55 30.025 27.55 30.225C27.55 30.425 27.625 30.6 27.775 30.75L28.75 31.725C28.9 31.875 29.075 31.95 29.275 31.95C29.475 31.95 29.65 31.875 29.8 31.725L32.225 29.35C32.375 29.2 32.45 29.0207 32.45 28.812C32.45 28.6033 32.375 28.4243 32.225 28.275C32.075 28.125 31.8957 28.05 31.687 28.05C31.4783 28.05 31.2993 28.125 31.15 28.275L29.275 30.125ZM29 21C29.2833 21 29.521 20.904 29.713 20.712C29.905 20.52 30.0007 20.2827 30 20C30 19.7167 29.904 19.479 29.712 19.287C29.52 19.095 29.2827 18.9993 29 19H19C18.7167 19 18.479 19.096 18.287 19.288C18.095 19.48 17.9993 19.7173 18 20C18 20.2833 18.096 20.521 18.288 20.713C18.48 20.905 18.7173 21.0007 19 21H29ZM30 35C28.6167 35 27.4377 34.5123 26.463 33.537C25.4883 32.5617 25.0007 31.3827 25 30C25 28.6167 25.4877 27.4373 26.463 26.462C27.4383 25.4867 28.6173 24.9993 30 25C31.3833 25 32.5627 25.4877 33.538 26.463C34.5133 27.4383 35.0007 28.6173 35 30C35 31.3833 34.5123 32.5627 33.537 33.538C32.5617 34.5133 31.3827 35.0007 30 35ZM17 15H31C31.55 15 32.021 15.196 32.413 15.588C32.805 15.98 33.0007 16.4507 33 17V23.675C32.5333 23.4417 32.0457 23.2707 31.537 23.162C31.0283 23.0533 30.516 22.9993 30 23H19C18.7167 23 18.479 23.096 18.287 23.288C18.095 23.48 17.9993 23.7173 18 24C18 24.2833 18.096 24.521 18.288 24.713C18.48 24.905 18.7173 25.0007 19 25H25.1C24.8167 25.2833 24.5543 25.5917 24.313 25.925C24.0717 26.2583 23.859 26.6167 23.675 27H19C18.7167 27 18.479 27.096 18.287 27.288C18.095 27.48 17.9993 27.7173 18 28C18 28.2833 18.096 28.521 18.288 28.713C18.48 28.905 18.7173 29.0007 19 29H23.075C23.0417 29.1667 23.0207 29.3293 23.012 29.488C23.0033 29.6467 22.9993 29.8173 23 30C23 30.7 23.096 31.371 23.288 32.013C23.48 32.655 23.7673 33.2673 24.15 33.85C24.0667 33.8667 23.979 33.854 23.887 33.812C23.795 33.77 23.716 33.716 23.65 33.65L22.85 32.85C22.75 32.75 22.6333 32.7 22.5 32.7C22.3667 32.7 22.25 32.75 22.15 32.85L21.35 33.65C21.25 33.75 21.1333 33.8 21 33.8C20.8667 33.8 20.75 33.75 20.65 33.65L19.85 32.85C19.75 32.75 19.6333 32.7 19.5 32.7C19.3667 32.7 19.25 32.75 19.15 32.85L18.35 33.65C18.25 33.75 18.1333 33.8 18 33.8C17.8667 33.8 17.75 33.75 17.65 33.65L16.85 32.85C16.75 32.75 16.6333 32.7 16.5 32.7C16.3667 32.7 16.25 32.75 16.15 32.85L15.35 33.65L15 33.875V17C15 16.45 15.196 15.979 15.588 15.587C15.98 15.195 16.4507 14.9993 17 15Z" fill="#009698"/>
</svg>
