<svg width="48" height="48" viewBox="0 0 48 48" fill="none" xmlns="http://www.w3.org/2000/svg">
<rect width="48" height="48" rx="8" fill="#e6f5f5"/>
<path d="M24 34C22.6167 34 21.3167 33.7373 20.1 33.212C18.8833 32.6867 17.825 31.9743 16.925 31.075C16.025 30.175 15.3127 29.1167 14.788 27.9C14.2633 26.6833 14.0007 25.3833 14 24C14 22.6167 14.2627 21.3167 14.788 20.1C15.3133 18.8833 16.0257 17.825 16.925 16.925C17.825 16.025 18.8833 15.3127 20.1 14.788C21.3167 14.2633 22.6167 14.0007 24 14C25.3833 14 26.6833 14.2627 27.9 14.788C29.1167 15.3133 30.175 16.0257 31.075 16.925C31.975 17.825 32.6877 18.8833 33.213 20.1C33.7383 21.3167 34.0007 22.6167 34 24C34 25.3833 33.7373 26.6833 33.212 27.9C32.6867 29.1167 31.9743 30.175 31.075 31.075C30.175 31.975 29.1167 32.6877 27.9 33.213C26.6833 33.7383 25.3833 34.0007 24 34ZM18.325 29.675L24 24V16C21.7667 16 19.875 16.775 18.325 18.325C16.775 19.875 16 21.7667 16 24C16 25.0667 16.2 26.0917 16.6 27.075C17 28.0583 17.575 28.925 18.325 29.675Z" fill="#009698"/>
</svg>
