<svg width="48" height="48" viewBox="0 0 48 48" fill="none" xmlns="http://www.w3.org/2000/svg">
<rect width="48" height="48" rx="8" fill="#E9EAED"/>
<path d="M15 20V17C15 16.45 15.196 15.979 15.588 15.587C15.98 15.195 16.4507 14.9993 17 15H32C32.55 15 33.021 15.196 33.413 15.588C33.805 15.98 34.0007 16.4507 34 17V20H15ZM20 22V33H17C16.45 33 15.979 32.804 15.587 32.412C15.195 32.02 14.9993 31.5493 15 31V22H20ZM29 22H34V31C34 31.55 33.804 32.021 33.412 32.413C33.02 32.805 32.5493 33.0007 32 33H29V22ZM27 22V33H22V22H27Z" fill="#25282D"/>
</svg>
