<svg width="48" height="48" viewBox="0 0 48 48" fill="none" xmlns="http://www.w3.org/2000/svg">
<rect width="48" height="48" rx="8" fill="#e6f5f5"/>
<path d="M26 23H33V18H26V23ZM29.5 21.75L27 20V19L29.5 20.75L32 19V20L29.5 21.75ZM14 33C13.45 33 12.979 32.804 12.587 32.412C12.195 32.02 11.9993 31.5493 12 31V17C12 16.45 12.196 15.979 12.588 15.587C12.98 15.195 13.4507 14.9993 14 15H34C34.55 15 35.021 15.196 35.413 15.588C35.805 15.98 36.0007 16.4507 36 17V31C36 31.55 35.804 32.021 35.412 32.413C35.02 32.805 34.5493 33.0007 34 33H14ZM21 26C21.8333 26 22.5417 25.7083 23.125 25.125C23.7083 24.5417 24 23.8333 24 23C24 22.1667 23.7083 21.4583 23.125 20.875C22.5417 20.2917 21.8333 20 21 20C20.1667 20 19.4583 20.2917 18.875 20.875C18.2917 21.4583 18 22.1667 18 23C18 23.8333 18.2917 24.5417 18.875 25.125C19.4583 25.7083 20.1667 26 21 26ZM14.1 31H27.9C27.2 29.75 26.2333 28.7707 25 28.062C23.7667 27.3533 22.4333 26.9993 21 27C19.5667 27 18.2333 27.3543 17 28.063C15.7667 28.7717 14.8 29.7507 14.1 31Z" fill="#009698"/>
</svg>
