<svg width="48" height="48" viewBox="0 0 48 48" fill="none" xmlns="http://www.w3.org/2000/svg">
<rect width="48" height="48" rx="8" fill="#e6f5f5"/>
<path d="M17 34C16.45 34 15.979 33.804 15.587 33.412C15.195 33.02 14.9993 32.5493 15 32V18C15 17.45 15.196 16.979 15.588 16.587C15.98 16.195 16.4507 15.9993 17 16H18V15C18 14.7167 18.096 14.479 18.288 14.287C18.48 14.095 18.7173 13.9993 19 14C19.2833 14 19.521 14.096 19.713 14.288C19.905 14.48 20.0007 14.7173 20 15V16H28V15C28 14.7167 28.096 14.479 28.288 14.287C28.48 14.095 28.7173 13.9993 29 14C29.2833 14 29.521 14.096 29.713 14.288C29.905 14.48 30.0007 14.7173 30 15V16H31C31.55 16 32.021 16.196 32.413 16.588C32.805 16.98 33.0007 17.4507 33 18V32C33 32.55 32.804 33.021 32.412 33.413C32.02 33.805 31.5493 34.0007 31 34H17ZM17 32H31V22H17V32ZM24 26C23.7167 26 23.479 25.904 23.287 25.712C23.095 25.52 22.9993 25.2827 23 25C23 24.7167 23.096 24.479 23.288 24.287C23.48 24.095 23.7173 23.9993 24 24C24.2833 24 24.521 24.096 24.713 24.288C24.905 24.48 25.0007 24.7173 25 25C25 25.2833 24.904 25.521 24.712 25.713C24.52 25.905 24.2827 26.0007 24 26ZM20 26C19.7167 26 19.479 25.904 19.287 25.712C19.095 25.52 18.9993 25.2827 19 25C19 24.7167 19.096 24.479 19.288 24.287C19.48 24.095 19.7173 23.9993 20 24C20.2833 24 20.521 24.096 20.713 24.288C20.905 24.48 21.0007 24.7173 21 25C21 25.2833 20.904 25.521 20.712 25.713C20.52 25.905 20.2827 26.0007 20 26ZM28 26C27.7167 26 27.479 25.904 27.287 25.712C27.095 25.52 26.9993 25.2827 27 25C27 24.7167 27.096 24.479 27.288 24.287C27.48 24.095 27.7173 23.9993 28 24C28.2833 24 28.521 24.096 28.713 24.288C28.905 24.48 29.0007 24.7173 29 25C29 25.2833 28.904 25.521 28.712 25.713C28.52 25.905 28.2827 26.0007 28 26ZM24 30C23.7167 30 23.479 29.904 23.287 29.712C23.095 29.52 22.9993 29.2827 23 29C23 28.7167 23.096 28.479 23.288 28.287C23.48 28.095 23.7173 27.9993 24 28C24.2833 28 24.521 28.096 24.713 28.288C24.905 28.48 25.0007 28.7173 25 29C25 29.2833 24.904 29.521 24.712 29.713C24.52 29.905 24.2827 30.0007 24 30ZM20 30C19.7167 30 19.479 29.904 19.287 29.712C19.095 29.52 18.9993 29.2827 19 29C19 28.7167 19.096 28.479 19.288 28.287C19.48 28.095 19.7173 27.9993 20 28C20.2833 28 20.521 28.096 20.713 28.288C20.905 28.48 21.0007 28.7173 21 29C21 29.2833 20.904 29.521 20.712 29.713C20.52 29.905 20.2827 30.0007 20 30ZM28 30C27.7167 30 27.479 29.904 27.287 29.712C27.095 29.52 26.9993 29.2827 27 29C27 28.7167 27.096 28.479 27.288 28.287C27.48 28.095 27.7173 27.9993 28 28C28.2833 28 28.521 28.096 28.713 28.288C28.905 28.48 29.0007 28.7173 29 29C29 29.2833 28.904 29.521 28.712 29.713C28.52 29.905 28.2827 30.0007 28 30Z" fill="#009698"/>
</svg>
