<svg width="48" height="48" viewBox="0 0 48 48" fill="none" xmlns="http://www.w3.org/2000/svg">
<rect width="48" height="48" rx="8" fill="#e6f5f5"/>
<path d="M20.825 24L22.3 22.525C22.5 22.325 22.6 22.0917 22.6 21.825C22.6 21.5583 22.5 21.325 22.3 21.125C22.1 20.925 21.8623 20.825 21.587 20.825C21.3117 20.825 21.0743 20.925 20.875 21.125L18.7 23.3C18.6 23.4 18.529 23.5083 18.487 23.625C18.445 23.7417 18.4243 23.8667 18.425 24C18.425 24.1333 18.4457 24.2583 18.487 24.375C18.5283 24.4917 18.5993 24.6 18.7 24.7L20.875 26.875C21.075 27.075 21.3127 27.175 21.588 27.175C21.8633 27.175 22.1007 27.075 22.3 26.875C22.5 26.675 22.6 26.4417 22.6 26.175C22.6 25.9083 22.5 25.675 22.3 25.475L20.825 24ZM27.175 24L25.7 25.475C25.5 25.675 25.4 25.9083 25.4 26.175C25.4 26.4417 25.5 26.675 25.7 26.875C25.9 27.075 26.1377 27.175 26.413 27.175C26.6883 27.175 26.9257 27.075 27.125 26.875L29.3 24.7C29.4 24.6 29.471 24.4917 29.513 24.375C29.555 24.2583 29.5757 24.1333 29.575 24C29.575 23.8667 29.554 23.7417 29.512 23.625C29.47 23.5083 29.3993 23.4 29.3 23.3L27.125 21.125C27.025 21.025 26.9123 20.95 26.787 20.9C26.6617 20.85 26.5367 20.825 26.412 20.825C26.2873 20.825 26.1623 20.85 26.037 20.9C25.9117 20.95 25.7993 21.025 25.7 21.125C25.5 21.325 25.4 21.5583 25.4 21.825C25.4 22.0917 25.5 22.325 25.7 22.525L27.175 24ZM17 33C16.45 33 15.979 32.804 15.587 32.412C15.195 32.02 14.9993 31.5493 15 31V17C15 16.45 15.196 15.979 15.588 15.587C15.98 15.195 16.4507 14.9993 17 15H31C31.55 15 32.021 15.196 32.413 15.588C32.805 15.98 33.0007 16.4507 33 17V31C33 31.55 32.804 32.021 32.412 32.413C32.02 32.805 31.5493 33.0007 31 33H17Z" fill="#009698"/>
</svg>
