<svg width="48" height="48" viewBox="0 0 48 48" fill="none" xmlns="http://www.w3.org/2000/svg">
<rect width="48" height="48" rx="8" fill="#E9EAED"/>
<path d="M24 32.9999C21.4833 32.9999 19.354 32.1289 17.612 30.3869C15.87 28.6449 14.9993 26.5159 15 23.9999C15 21.6999 15.75 19.7039 17.25 18.0119C18.75 16.3199 20.6667 15.3326 23 15.0499C23.4167 14.9999 23.7417 15.1499 23.975 15.4999C24.2083 15.8499 24.2 16.2166 23.95 16.5999C23.6667 17.0332 23.454 17.4916 23.312 17.9749C23.17 18.4582 23.0993 18.9666 23.1 19.4999C23.1 20.9999 23.625 22.2749 24.675 23.3249C25.725 24.3749 27 24.8999 28.5 24.8999C29.0167 24.8999 29.5293 24.8249 30.038 24.6749C30.5467 24.5249 31.0007 24.3166 31.4 24.0499C31.75 23.8166 32.1083 23.8042 32.475 24.0129C32.8417 24.2216 33 24.5506 32.95 24.9999C32.7167 27.2999 31.7377 29.2082 30.013 30.7249C28.2883 32.2416 26.284 32.9999 24 32.9999Z" fill="#25282D"/>
</svg>
