<svg width="48" height="48" viewBox="0 0 48 48" fill="none" xmlns="http://www.w3.org/2000/svg">
<rect width="48" height="48" rx="8" fill="#E9EAED"/>
<path d="M15 33C14.7167 33 14.479 32.904 14.287 32.712C14.095 32.52 13.9993 32.2827 14 32C14 31.7167 14.096 31.479 14.288 31.287C14.48 31.095 14.7173 30.9993 15 31H33C33.2833 31 33.521 31.096 33.713 31.288C33.905 31.48 34.0007 31.7173 34 32C34 32.2833 33.904 32.521 33.712 32.713C33.52 32.905 33.2827 33.0007 33 33H15ZM16.5 30C16.0833 30 15.729 29.854 15.437 29.562C15.145 29.27 14.9993 28.916 15 28.5V24.5C15 24.0833 15.146 23.729 15.438 23.437C15.73 23.145 16.084 22.9993 16.5 23C16.9167 23 17.271 23.146 17.563 23.438C17.855 23.73 18.0007 24.084 18 24.5V28.5C18 28.9167 17.854 29.271 17.562 29.563C17.27 29.855 16.916 30.0007 16.5 30ZM21.5 30C21.0833 30 20.729 29.854 20.437 29.562C20.145 29.27 19.9993 28.916 20 28.5V19.5C20 19.0833 20.146 18.729 20.438 18.437C20.73 18.145 21.084 17.9993 21.5 18C21.9167 18 22.271 18.146 22.563 18.438C22.855 18.73 23.0007 19.084 23 19.5V28.5C23 28.9167 22.854 29.271 22.562 29.563C22.27 29.855 21.916 30.0007 21.5 30ZM26.5 30C26.0833 30 25.729 29.854 25.437 29.562C25.145 29.27 24.9993 28.916 25 28.5V22.5C25 22.0833 25.146 21.729 25.438 21.437C25.73 21.145 26.084 20.9993 26.5 21C26.9167 21 27.271 21.146 27.563 21.438C27.855 21.73 28.0007 22.084 28 22.5V28.5C28 28.9167 27.854 29.271 27.562 29.563C27.27 29.855 26.916 30.0007 26.5 30ZM31.5 30C31.0833 30 30.729 29.854 30.437 29.562C30.145 29.27 29.9993 28.916 30 28.5V16.5C30 16.0833 30.146 15.729 30.438 15.437C30.73 15.145 31.084 14.9993 31.5 15C31.9167 15 32.271 15.146 32.563 15.438C32.855 15.73 33.0007 16.084 33 16.5V28.5C33 28.9167 32.854 29.271 32.562 29.563C32.27 29.855 31.916 30.0007 31.5 30Z" fill="#25282D"/>
</svg>
