<svg width="48" height="48" viewBox="0 0 48 48" fill="none" xmlns="http://www.w3.org/2000/svg">
<rect width="48" height="48" rx="8" fill="#E9EAED"/>
<path d="M17 33C16.45 33 15.979 32.804 15.587 32.412C15.195 32.02 14.9993 31.5493 15 31V17C15 16.45 15.196 15.979 15.588 15.587C15.98 15.195 16.4507 14.9993 17 15H25C25.2833 15 25.521 15.096 25.713 15.288C25.905 15.48 26.0007 15.7173 26 16C26 16.2833 25.904 16.521 25.712 16.713C25.52 16.905 25.2827 17.0007 25 17H17V31H31V23C31 22.7167 31.096 22.479 31.288 22.287C31.48 22.095 31.7173 21.9993 32 22C32.2833 22 32.521 22.096 32.713 22.288C32.905 22.48 33.0007 22.7173 33 23V31C33 31.55 32.804 32.021 32.412 32.413C32.02 32.805 31.5493 33.0007 31 33H17ZM22.75 25.25L20.5 24.225C20.4 24.175 20.35 24.1 20.35 24C20.35 23.9 20.4 23.825 20.5 23.775L22.75 22.75L23.775 20.5C23.825 20.4 23.9 20.35 24 20.35C24.1 20.35 24.175 20.4 24.225 20.5L25.25 22.75L27.5 23.775C27.6 23.825 27.65 23.9 27.65 24C27.65 24.1 27.6 24.175 27.5 24.225L25.25 25.25L24.225 27.5C24.175 27.6 24.1 27.65 24 27.65C23.9 27.65 23.825 27.6 23.775 27.5L22.75 25.25ZM28.05 19.95L26.5 19.225C26.4 19.175 26.35 19.1 26.35 19C26.35 18.9 26.4 18.825 26.5 18.775L28.05 18.05L28.775 16.5C28.825 16.4 28.9 16.35 29 16.35C29.1 16.35 29.175 16.4 29.225 16.5L29.95 18.05L31.5 18.775C31.6 18.825 31.65 18.9 31.65 19C31.65 19.1 31.6 19.175 31.5 19.225L29.95 19.95L29.225 21.5C29.175 21.6 29.1 21.65 29 21.65C28.9 21.65 28.825 21.6 28.775 21.5L28.05 19.95Z" fill="#25282D"/>
</svg>
