<svg width="48" height="48" viewBox="0 0 48 48" fill="none" xmlns="http://www.w3.org/2000/svg">
<rect width="48" height="48" rx="8" fill="#009698" fill-opacity="0.1"/>
<path d="M24 15.8333C22.6583 15.8333 21.4042 16.1444 20.2375 16.7667C19.0708 17.3889 18.0889 18.2444 17.2917 19.3333H19.3333C19.6639 19.3333 19.9412 19.4453 20.1652 19.6693C20.3892 19.8933 20.5008 20.1702 20.5 20.5C20.5 20.8306 20.388 21.1078 20.164 21.3318C19.94 21.5558 19.6631 21.6674 19.3333 21.6667H14.6667C14.3361 21.6667 14.0588 21.5547 13.8348 21.3307C13.6108 21.1067 13.4992 20.8298 13.5 20.5V15.8333C13.5 15.5028 13.612 15.2255 13.836 15.0015C14.06 14.7775 14.3369 14.6659 14.6667 14.6667C14.9972 14.6667 15.2745 14.7787 15.4985 15.0027C15.7225 15.2267 15.8341 15.5036 15.8333 15.8333V17.4083C16.825 16.1639 18.0356 15.2014 19.4652 14.5208C20.8947 13.8403 22.4063 13.5 24 13.5C26.9167 13.5 29.3958 14.5208 31.4375 16.5625C33.4792 18.6042 34.5 21.0833 34.5 24H32.1667C32.1667 21.725 31.3741 19.7949 29.789 18.2098C28.2039 16.6247 26.2742 15.8326 24 15.8333ZM24.0875 34.5C21.6569 34.5 19.4986 33.7708 17.6125 32.3125C15.7264 30.8542 14.4722 28.9875 13.85 26.7125C13.7528 26.3819 13.8014 26.0806 13.9958 25.8083C14.1903 25.5361 14.4528 25.3806 14.7833 25.3417C15.0944 25.3028 15.3764 25.3611 15.6292 25.5167C15.8819 25.6722 16.0569 25.9056 16.1542 26.2167C16.5625 27.7528 17.3597 29.0458 18.5458 30.0958C19.7319 31.1458 21.1125 31.7972 22.6875 32.05L24.0875 34.5ZM25.575 27.2083L23.1833 24.8167C23.0667 24.7 22.9792 24.5686 22.9208 24.4223C22.8625 24.2761 22.8333 24.1256 22.8333 23.9708V19.3333C22.8333 19.0028 22.9453 18.7255 23.1693 18.5015C23.3933 18.2775 23.6702 18.1659 24 18.1667C24.3306 18.1667 24.6078 18.2787 24.8318 18.5027C25.0558 18.7267 25.1674 19.0036 25.1667 19.3333V23.5333L26.8 25.1667L25.575 27.2083ZM31.9042 38C31.6319 38 31.3936 37.9125 31.189 37.7375C30.9844 37.5625 30.8534 37.3389 30.7958 37.0667L30.6208 36.25C30.3875 36.1528 30.1686 36.0509 29.964 35.9443C29.7594 35.8378 29.5506 35.7063 29.3375 35.55L28.4917 35.8125C28.2389 35.8903 27.9908 35.8806 27.7473 35.7833C27.5039 35.6861 27.3145 35.5306 27.1792 35.3167L26.9458 34.9083C26.8097 34.675 26.7611 34.4222 26.8 34.15C26.8389 33.8778 26.9653 33.6542 27.1792 33.4792L27.8208 32.925C27.7819 32.6722 27.7625 32.4194 27.7625 32.1667C27.7625 31.9139 27.7819 31.6611 27.8208 31.4083L27.1792 30.8542C26.9653 30.6792 26.8389 30.4606 26.8 30.1985C26.7611 29.9364 26.8097 29.6883 26.9458 29.4542L27.2083 29.0167C27.3444 28.8028 27.5292 28.6472 27.7625 28.55C27.9958 28.4528 28.2389 28.4431 28.4917 28.5208L29.3375 28.7833C29.5514 28.6278 29.7606 28.4967 29.9652 28.3902C30.1697 28.2836 30.3883 28.1813 30.6208 28.0833L30.7958 27.2375C30.8542 26.9653 30.9856 26.7463 31.1902 26.5807C31.3947 26.415 31.6327 26.3326 31.9042 26.3333H32.3708C32.6431 26.3333 32.8814 26.4208 33.086 26.5958C33.2906 26.7708 33.4216 26.9944 33.4792 27.2667L33.6542 28.0833C33.8875 28.1806 34.1111 28.2922 34.325 28.4182C34.5389 28.5442 34.7431 28.6853 34.9375 28.8417L35.725 28.5792C35.9972 28.4819 36.2597 28.4819 36.5125 28.5792C36.7653 28.6764 36.9597 28.8417 37.0958 29.075L37.3292 29.4833C37.4653 29.7167 37.5139 29.9694 37.475 30.2417C37.4361 30.5139 37.3097 30.7375 37.0958 30.9125L36.4542 31.4667C36.4931 31.7194 36.5125 31.9625 36.5125 32.1958C36.5125 32.4292 36.4931 32.6722 36.4542 32.925L37.0958 33.4792C37.3097 33.6542 37.4361 33.8731 37.475 34.136C37.5139 34.3989 37.4653 34.6466 37.3292 34.8792L37.0667 35.3167C36.9306 35.5306 36.7458 35.6861 36.5125 35.7833C36.2792 35.8806 36.0361 35.8903 35.7833 35.8125L34.9375 35.55C34.7236 35.7056 34.5144 35.8366 34.3098 35.9432C34.1053 36.0497 33.8867 36.152 33.6542 36.25L33.4792 37.0958C33.4208 37.3681 33.2898 37.587 33.086 37.7527C32.8822 37.9183 32.6438 38.0008 32.3708 38H31.9042ZM32.1375 34.5C32.7792 34.5 33.3283 34.2713 33.7848 33.814C34.2414 33.3567 34.4704 32.8076 34.472 32.1667C34.472 31.525 34.2433 30.9755 33.786 30.5182C33.3287 30.0608 32.7796 29.8326 32.1387 29.8333C31.497 29.8333 30.9475 30.062 30.4902 30.5193C30.0328 30.9767 29.8046 31.5258 29.8053 32.1667C29.8053 32.8083 30.034 33.3578 30.4913 33.8152C30.9487 34.2725 31.4966 34.5008 32.1375 34.5Z" fill="#009698"/>
</svg>
