<svg width="28" height="28" viewBox="0 0 28 28" fill="none" xmlns="http://www.w3.org/2000/svg">
<rect width="28" height="28" rx="14" fill="white"/>
<path d="M13.875 8.81642C13.9141 8.83595 13.9454 8.88282 13.9922 8.88282C14.0352 8.88282 14.1016 8.8672 14.1055 8.82423C14.1133 8.76954 14.0313 8.73439 13.9805 8.71095C13.9141 8.68361 13.8282 8.67189 13.7657 8.70704C13.75 8.71486 13.7344 8.73439 13.7422 8.75001C13.754 8.80079 13.8321 8.79298 13.875 8.81642ZM13.0196 8.88282C13.0665 8.88282 13.0977 8.83595 13.1368 8.81642C13.1797 8.79298 13.2579 8.80079 13.2735 8.75392C13.2813 8.73829 13.2657 8.71876 13.25 8.71095C13.1875 8.67579 13.1016 8.68751 13.0352 8.71485C12.9844 8.73829 12.9024 8.77345 12.9102 8.82814C12.9141 8.8672 12.9805 8.88673 13.0196 8.88282ZM21.6563 19.7734C21.5157 19.6172 21.4493 19.3203 21.375 19.0039C21.3047 18.6875 21.2227 18.3477 20.9649 18.1289C20.9141 18.0859 20.8633 18.0469 20.8086 18.0156C20.7579 17.9844 20.7032 17.957 20.6485 17.9375C21.0079 16.8711 20.8672 15.8086 20.504 14.8477C20.0586 13.6719 19.2813 12.6445 18.6875 11.9414C18.0196 11.1016 17.3711 10.3047 17.3829 9.12892C17.4024 7.33595 17.5821 4.00392 14.4219 4.00001C10.4219 3.9922 11.4219 8.03907 11.379 9.28126C11.3125 10.1953 11.129 10.9141 10.5 11.8086C9.76176 12.6875 8.7227 14.1055 8.23051 15.5859C7.99614 16.2852 7.88676 16.9961 7.98833 17.668C7.73442 17.8945 7.54301 18.2422 7.33989 18.457C7.17583 18.625 6.93754 18.6875 6.67583 18.7813C6.41411 18.875 6.12895 19.0156 5.95317 19.3477C5.87114 19.5 5.84379 19.6641 5.84379 19.832C5.84379 19.9844 5.86723 20.1406 5.89067 20.293C5.93754 20.6094 5.98833 20.9063 5.92192 21.1055C5.71879 21.668 5.69145 22.0586 5.83598 22.3438C5.98442 22.6289 6.28129 22.7539 6.62114 22.8242C7.29692 22.9649 8.21489 22.9297 8.93754 23.3125C9.71098 23.7188 10.4961 23.8633 11.1211 23.7188C11.5743 23.6172 11.9454 23.3438 12.1329 22.9297C12.6211 22.9258 13.1602 22.7188 14.0196 22.6719C14.6016 22.625 15.3321 22.8789 16.1719 22.832C16.1954 22.9219 16.2266 23.0117 16.2696 23.0938V23.0977C16.5938 23.75 17.1993 24.0469 17.8438 23.9961C18.4922 23.9453 19.1758 23.5664 19.7305 22.9063C20.2618 22.2656 21.1368 22 21.7188 21.6484C22.0079 21.4727 22.2422 21.2539 22.2618 20.9336C22.2774 20.6133 22.0899 20.2578 21.6563 19.7734ZM13.9883 7.41017C14.3711 6.54298 15.3243 6.55861 15.7071 7.39454C15.961 7.94923 15.8477 8.60157 15.5391 8.97267C15.4766 8.94142 15.3086 8.87111 15.0469 8.78126C15.0899 8.73439 15.168 8.67579 15.1993 8.60157C15.3868 8.14064 15.1915 7.54689 14.8438 7.53517C14.5586 7.51564 14.3008 7.95704 14.3829 8.43361C14.2227 8.35548 14.0157 8.29689 13.875 8.26173C13.836 7.9922 13.8633 7.69142 13.9883 7.41017ZM12.3985 6.96095C12.793 6.96095 13.211 7.51564 13.1446 8.26954C13.0079 8.30861 12.8672 8.3672 12.7461 8.44923C12.793 8.10157 12.6172 7.66407 12.3711 7.68361C12.043 7.71095 11.9883 8.51173 12.3008 8.78126C12.3399 8.81251 12.375 8.77345 12.0704 8.99611C11.461 8.42579 11.6602 6.96095 12.3985 6.96095ZM11.8672 9.33204C12.1094 9.15236 12.3985 8.94142 12.418 8.92189C12.6016 8.75001 12.9454 8.3672 13.5079 8.3672C13.7852 8.3672 14.1172 8.45704 14.5196 8.71485C14.7657 8.87501 14.961 8.88673 15.4024 9.07814C15.7305 9.21486 15.9375 9.45704 15.8125 9.78907C15.711 10.0664 15.3829 10.3516 14.9258 10.4961C14.4922 10.6367 14.1524 11.1211 13.4336 11.0781C13.2813 11.0703 13.1602 11.0391 13.0586 10.9961C12.7461 10.8594 12.5821 10.5899 12.2774 10.4102C11.9415 10.2227 11.7618 10.0039 11.7032 9.81251C11.6485 9.62111 11.7032 9.46095 11.8672 9.33204ZM11.9961 22.3789C11.8907 23.75 10.2813 23.7227 9.05473 23.082C7.88676 22.4649 6.37504 22.8281 6.06645 22.2266C5.9727 22.043 5.9727 21.7305 6.16801 21.1953V21.1875C6.26176 20.8906 6.19145 20.5625 6.14458 20.2539C6.0977 19.9492 6.07426 19.668 6.17973 19.4727C6.31645 19.2109 6.51176 19.1172 6.75786 19.0313C7.1602 18.8867 7.21879 18.8984 7.52348 18.6445C7.73833 18.4219 7.89458 18.1406 8.08208 17.9414C8.28129 17.7266 8.4727 17.625 8.77348 17.6719C9.08989 17.7188 9.36333 17.9375 9.62895 18.2969L10.3946 19.6875C10.7657 20.4649 12.0782 21.5781 11.9961 22.3789ZM11.9415 21.3672C11.7813 21.1094 11.5665 20.8359 11.379 20.6016C11.6563 20.6016 11.9336 20.5156 12.0313 20.2539C12.1211 20.0117 12.0313 19.6719 11.7422 19.2813C11.2149 18.5703 10.2461 18.0117 10.2461 18.0117C9.71879 17.6836 9.42192 17.2813 9.2852 16.8438C9.14848 16.4063 9.16801 15.9336 9.27348 15.4688C9.47661 14.5742 10 13.7031 10.336 13.1563C10.4258 13.0899 10.3672 13.2813 9.99614 13.9688C9.66411 14.5977 9.04301 16.0508 9.89458 17.1875C9.91801 16.3789 10.1094 15.5547 10.4336 14.7852C10.9024 13.7149 11.8907 11.8594 11.9688 10.3828C12.0118 10.4141 12.1485 10.5078 12.211 10.543C12.3907 10.6484 12.5274 10.8047 12.7032 10.9453C13.1875 11.3359 13.8165 11.3047 14.3594 10.9922C14.6016 10.8555 14.7969 10.6992 14.9805 10.6406C15.3672 10.5195 15.6758 10.3047 15.8516 10.0547C16.1524 11.2422 16.8555 12.957 17.3047 13.793C17.543 14.2383 18.0196 15.1797 18.2266 16.3164C18.3555 16.3125 18.5 16.332 18.6524 16.3711C19.1915 14.9766 18.1954 13.4727 17.7422 13.0547C17.5586 12.875 17.5508 12.7969 17.6407 12.8008C18.1329 13.2383 18.7813 14.1172 19.0157 15.1055C19.125 15.5586 19.1446 16.0313 19.0313 16.5C19.6719 16.7656 20.4336 17.1992 20.2305 17.8594C20.1446 17.8555 20.1055 17.8594 20.0665 17.8594C20.1915 17.4649 19.9141 17.1719 19.1758 16.8399C18.4102 16.5039 17.7696 16.5039 17.6797 17.3281C17.2071 17.4922 16.9649 17.9024 16.8438 18.3945C16.7344 18.832 16.7032 19.3594 16.6719 19.9531C16.6524 20.2539 16.5313 20.6563 16.4063 21.0859C15.1524 21.9805 13.4102 22.3711 11.9415 21.3672ZM21.9961 20.918C21.961 21.5742 20.3868 21.6953 19.5274 22.7344C19.0118 23.3477 18.379 23.6875 17.8243 23.7305C17.2696 23.7734 16.7891 23.543 16.5079 22.9766C16.3243 22.543 16.4141 22.0742 16.5508 21.5586C16.6954 21.0039 16.9102 20.4336 16.9375 19.9727C16.9688 19.3789 17.004 18.8594 17.1016 18.4609C17.2032 18.0586 17.3594 17.7891 17.6368 17.6367C17.6485 17.6289 17.6641 17.625 17.6758 17.6172C17.7071 18.1328 17.961 18.6563 18.4102 18.7695C18.9024 18.8984 19.6094 18.4766 19.9102 18.1328C20.2618 18.1211 20.5235 18.0977 20.793 18.332C21.1797 18.6641 21.0704 19.5156 21.461 19.957C21.875 20.4102 22.0079 20.7188 21.9961 20.918ZM12.0196 9.8086C12.0977 9.88282 12.2032 9.98439 12.3321 10.0859C12.5899 10.2891 12.9493 10.5 13.3985 10.5C13.8516 10.5 14.2774 10.2695 14.6407 10.0781C14.8321 9.97657 15.0665 9.8047 15.2188 9.67189C15.3711 9.53907 15.4493 9.42579 15.3399 9.41407C15.2305 9.40236 15.2383 9.51564 15.1055 9.61329C14.9336 9.73829 14.7266 9.90236 14.5625 9.99611C14.2735 10.1602 13.8008 10.3945 13.3946 10.3945C12.9883 10.3945 12.6641 10.207 12.4219 10.0156C12.3008 9.91798 12.1993 9.82032 12.1211 9.74611C12.0625 9.69142 12.0469 9.56642 11.9532 9.5547C11.8985 9.55079 11.8829 9.69923 12.0196 9.8086Z" fill="#0E0F10"/>
</svg>
