<svg width="32" height="32" viewBox="0 0 32 32" fill="none" xmlns="http://www.w3.org/2000/svg">
<path d="M4.82853 18.2286C4.62853 17.3714 4.51424 16.4571 4.51424 15.5429C4.51424 8.94286 9.8571 3.6 16.4571 3.6C23.0571 3.6 28.4 8.94286 28.4 15.5429C28.4 22.1429 23.0571 27.4571 16.4571 27.4571C15.0285 27.4571 13.6285 27.2 12.3714 26.7429C13.9714 27.4286 15.7142 27.8 17.5714 27.8C24.8857 27.8 30.8285 21.8571 30.8285 14.5429C30.8285 7.22857 24.8857 1.31429 17.5714 1.31429C10.2571 1.31429 4.31424 7.22857 4.31424 14.5714C4.31424 15.8286 4.51424 17.0571 4.82853 18.2286Z" fill="#009698"/>
<path d="M31 19.3714C29.0857 25.0857 23.6857 29.2286 17.3143 29.2286C9.34286 29.2286 2.91429 22.7714 2.91429 14.8286C2.91429 8.6 6.85714 3.28571 12.4 1.28571C13.8571 0.6 15.4571 0.171429 17.1429 0.0285714C16.7714 0.0285714 16.4 0 16 0C7.17143 0 0 7.17143 0 16C0 24.8286 7.17143 32 16 32C24.8286 32 32 24.8286 32 16C32 15.9429 32 15.8857 32 15.8286C31.8286 17.0857 31.4857 18.2571 31 19.3714Z" fill="#E86D6D"/>
<path d="M16 17.5714C16.8678 17.5714 17.5714 16.8679 17.5714 16C17.5714 15.1321 16.8678 14.4286 16 14.4286C15.1321 14.4286 14.4285 15.1321 14.4285 16C14.4285 16.8679 15.1321 17.5714 16 17.5714Z" fill="#E86D6D"/>
<path d="M21.6571 15.5143L21.8285 14.6857L21.2571 14L17.7428 14.8286C17.9714 15.1714 18.0857 15.5714 18.0857 16C18.0857 16.1143 18.0857 16.2571 18.0571 16.3714L21.6571 15.5143Z" fill="#009698"/>
<path d="M10.7714 7.74285L9.97136 7.88571L9.51422 8.71428L14.0571 15.2C14.2571 14.6857 14.6856 14.2857 15.1999 14.0571L10.7714 7.74285Z" fill="#009698"/>
</svg>
