<svg width="16" height="14" viewBox="0 0 16 14" fill="none" xmlns="http://www.w3.org/2000/svg">
<path d="M7.99028 14C7.48481 14 6.9774 13.8409 6.57108 13.5227C6.49137 13.4631 6.16282 13.1847 5.94897 12.9659L5.83232 12.8466C4.06124 11.1761 1.39781 7.01989 0.54435 4.91193C0.524908 4.91193 0.0174971 3.65909 0 3.0625V2.98295C0 2.06818 0.503525 1.21307 1.32005 0.775568C1.76914 0.536932 3.07169 0.318181 3.08919 0.298295C4.25759 0.119318 6.04617 0 8.00972 0C10.0685 0 11.9368 0.119318 13.0838 0.338068C13.1033 0.338068 14.1531 0.556818 14.503 0.696023C15.0066 0.914773 15.4362 1.3125 15.7084 1.80966C15.9009 2.20739 16 2.625 16 3.0625C15.9786 3.51989 15.6889 4.375 15.5529 4.71307C14.6974 6.94034 11.8979 11.196 10.1871 12.8267C9.91495 13.1051 9.5825 13.4034 9.50668 13.483C9.07898 13.821 8.55407 14 7.99028 14Z" fill="#9AA2AC"/>
</svg>
